<svg id="Ebene_1" data-name="Ebene 1" xmlns="http://www.w3.org/2000/svg" viewBox="0 0 100 100"><defs><style>.cls-1{fill:#81d0f5;}</style></defs><path class="cls-1" d="M85.32,54.51H63.57L74.44,26,85.32,54.51M25.56,26,36.44,54.51H14.68L25.56,26M87.16,54.6c-.66-.16-.66-.16-1-1-.06-.17-.13-.33-.19-.49Q80.92,39.85,75.84,26.57c-.26-.68-.51-1.37-.8-2.14h4.13A2.23,2.23,0,0,0,81.4,22.2V20.33a2.23,2.23,0,0,0-2.23-2.23H53.05c0-1.49,0-2.92,0-4.34H46.49c0,1.25,0,2.51,0,3.76v.59H20.84a2.23,2.23,0,0,0-2.23,2.23v1.91a2.23,2.23,0,0,0,2.23,2.23h4.09c-.08.24-.12.39-.18.54q-5.49,14.4-11,28.82c-.18.47-.36.82-.84.73l-.07,0a10,10,0,0,0,.84,5,11.57,11.57,0,0,0,5.46,5.6,13.9,13.9,0,0,0,7.91,1.44,13.34,13.34,0,0,0,6.77-2.6,11,11,0,0,0,4-5.48,10.45,10.45,0,0,0,.44-4c-.31-.08-.61.08-.8-.42q-5.1-13.47-10.25-26.9l-1-2.76H46.47V78.9H33.2A2.23,2.23,0,0,0,31,81.13V84a2.23,2.23,0,0,0,2.23,2.23H66A2.23,2.23,0,0,0,68.22,84V81.13A2.23,2.23,0,0,0,66,78.9H53.06V24.51H73.81l-.08.24L62.6,53.92c-.16.44-.34.73-.77.63,0,0-.07,0-.11.06a10.22,10.22,0,0,0,1.1,5.54,11.73,11.73,0,0,0,6.53,5.65A14.4,14.4,0,0,0,79,66a12,12,0,0,0,6.79-5.37,10.22,10.22,0,0,0,1.35-6"/></svg>