<svg id="Ebene_1" data-name="Ebene 1" xmlns="http://www.w3.org/2000/svg" xmlns:xlink="http://www.w3.org/1999/xlink" viewBox="0 0 100 100"><defs><style>.cls-1{fill:none;}.cls-2{font-size:12px;font-family:MyriadPro-Regular, Myriad Pro;}.cls-3{letter-spacing:0em;}.cls-4{clip-path:url(#clip-path);}.cls-5{fill:#81d0f5;}</style><clipPath id="clip-path"><rect class="cls-1" x="12.81" y="15.29" width="74.38" height="69.43"/></clipPath></defs><text class="cls-2" transform="translate(-29.08 -24.92)"><tspan class="cls-3">B</tspan><tspan x="6.55" y="0">enefits</tspan></text><g class="cls-4"><path class="cls-5" d="M35.78,50a13.36,13.36,0,0,0-10.27,5H20.32A8.87,8.87,0,0,1,15,53.39a5.33,5.33,0,0,1-2.16-4.59q0-13.68,4.8-13.68a7.15,7.15,0,0,1,1.68.82,25.33,25.33,0,0,0,3.78,1.64,13.76,13.76,0,0,0,4.61.84,15.49,15.49,0,0,0,5.16-.9,17.79,17.79,0,0,0-.2,2.56A17.08,17.08,0,0,0,35.78,50M34.7,18.19a9.59,9.59,0,0,1,2.9,7,9.92,9.92,0,0,1-9.92,9.92,9.94,9.94,0,0,1-9.92-9.92,9.92,9.92,0,0,1,9.92-9.91,9.56,9.56,0,0,1,7,2.9M77.27,74.68A9.66,9.66,0,0,1,74.45,82a10.49,10.49,0,0,1-7.52,2.69H33.07A10.48,10.48,0,0,1,25.55,82a9.66,9.66,0,0,1-2.83-7.34c0-1.37.05-2.71.14-4a39.68,39.68,0,0,1,.54-4.22,33.1,33.1,0,0,1,1-4.2,19.4,19.4,0,0,1,1.66-3.78,13.91,13.91,0,0,1,2.4-3.15,10.29,10.29,0,0,1,3.32-2.07,11.74,11.74,0,0,1,4.32-.77,4.67,4.67,0,0,1,1.66.83l2.83,1.86A16.93,16.93,0,0,0,44.77,57a17.93,17.93,0,0,0,14.61-1.87l2.82-1.86a4.68,4.68,0,0,1,1.67-.83,11.77,11.77,0,0,1,4.32.77,10.24,10.24,0,0,1,3.31,2.07,13.63,13.63,0,0,1,2.4,3.15,20.07,20.07,0,0,1,1.67,3.78,33.1,33.1,0,0,1,1,4.2,42.45,42.45,0,0,1,.54,4.22c.09,1.3.13,2.64.13,4M60.51,29.56a14.34,14.34,0,0,1,4.36,10.52A14.89,14.89,0,0,1,50,55,14.89,14.89,0,0,1,35.12,40.08,14.89,14.89,0,0,1,50,25.2a14.34,14.34,0,0,1,10.51,4.36M79.33,18.19a9.55,9.55,0,0,1,2.9,7,9.91,9.91,0,0,1-16.93,7,9.52,9.52,0,0,1-2.9-7,9.92,9.92,0,0,1,16.93-7M87.19,48.8A5.31,5.31,0,0,1,85,53.39,8.85,8.85,0,0,1,79.67,55H74.48a13.35,13.35,0,0,0-10.27-5,17,17,0,0,0,3.15-9.92,19.35,19.35,0,0,0-.2-2.56,15.43,15.43,0,0,0,5.15.9,13.67,13.67,0,0,0,4.61-.84,24.88,24.88,0,0,0,3.78-1.64,7.36,7.36,0,0,1,1.68-.82q4.82,0,4.81,13.68"/></g></svg>