<svg id="Ebene_1" data-name="Ebene 1" xmlns="http://www.w3.org/2000/svg" viewBox="0 0 100 100"><defs><style>.cls-1{font-size:12px;font-family:MyriadPro-Regular, Myriad Pro;}.cls-2{letter-spacing:0em;}.cls-3{fill:#83d0f0;}.cls-4{fill:#fff;}</style></defs><text class="cls-1" transform="translate(83.89 -24.92)"><tspan class="cls-2">B</tspan><tspan x="6.55" y="0">enefits</tspan></text><path class="cls-3" d="M81,50l7,6.88a3.44,3.44,0,0,1,1,3.56A3.48,3.48,0,0,1,86.37,63L76.8,65.48,79.5,75A3.71,3.71,0,0,1,75,79.49l-9.47-2.7L63,86.38A3.48,3.48,0,0,1,60.43,89a7.3,7.3,0,0,1-1,.1A3.37,3.37,0,0,1,56.88,88L50,81l-6.87,7a3.47,3.47,0,0,1-3.56,1A3.41,3.41,0,0,1,37,86.38l-2.44-9.59L25,79.49a3.25,3.25,0,0,1-3.56-1,3.3,3.3,0,0,1-1-3.58l2.71-9.47L13.63,63A3.48,3.48,0,0,1,11,60.44a3.44,3.44,0,0,1,1-3.56L19,50l-7-6.89a3.44,3.44,0,0,1-1-3.56A3.51,3.51,0,0,1,13.63,37l9.58-2.44L20.5,25a3.25,3.25,0,0,1,1-3.56,3.25,3.25,0,0,1,3.56-1l9.48,2.7L37,13.62a3.31,3.31,0,0,1,2.6-2.6,3.3,3.3,0,0,1,3.56,1L50,19.07,56.88,12a3.41,3.41,0,0,1,3.55-1A3.31,3.31,0,0,1,63,13.62l2.45,9.58L75,20.5a3.28,3.28,0,0,1,3.57,1,3.25,3.25,0,0,1,1,3.56l-2.7,9.47L86.37,37A3.51,3.51,0,0,1,89,39.55a3.44,3.44,0,0,1-1,3.56Z"/><path class="cls-4" d="M57.08,59.44a1.84,1.84,0,0,1-.77,2.22L44.89,67.3A1.34,1.34,0,0,1,43,66.38a1.83,1.83,0,0,1,.76-2.22l11.42-5.64a1.36,1.36,0,0,1,1.86.92"/><path class="cls-4" d="M45.45,60.13a1.36,1.36,0,0,1-1.86-.92c-.3-.86.09-1.52.87-1.5h8.07Z"/><path class="cls-4" d="M54.28,67a1.84,1.84,0,0,1-.77,2.22l-5.82,2.87a1.36,1.36,0,0,1-1.86-.92,1.85,1.85,0,0,1,.77-2.22l5.82-2.87a1.35,1.35,0,0,1,1.86.92"/><path class="cls-4" d="M50.06,27.06a13.61,13.61,0,0,0-9.28,23.52l2.61,4.89H56.57l2.61-4.89.48-.38a13.56,13.56,0,0,0-9.6-23.14"/></svg>