<?xml version="1.0" encoding="utf-8"?>
<!-- Generator: Adobe Illustrator 25.4.1, SVG Export Plug-In . SVG Version: 6.00 Build 0)  -->
<svg version="1.1" id="Ebene_1" xmlns="http://www.w3.org/2000/svg" xmlns:xlink="http://www.w3.org/1999/xlink" x="0px" y="0px"
	 viewBox="0 0 1559 134.2" style="enable-background:new 0 0 1559 134.2;" xml:space="preserve">
<style type="text/css">
	.st0{fill:#FFFFFF;}
</style>
<g>
	<polygon class="st0" points="0,132.7 41,132.7 41,87.9 135,87.9 135,57.5 41,57.5 41,33 139.6,33 139.6,1.4 0,1.4 	"/>
	<path class="st0" d="M286.1,0h-65.8c-36.9,0-58.9,9.1-58.9,47.5v39.2c0,38.4,22,47.5,58.9,47.5h65.8c36.9,0,58.9-9.1,58.9-47.5
		V47.5C345,9.1,323,0,286.1,0z M302.9,74.1c0,19.1-4.1,26.3-23.5,26.3H227c-19.4,0-23.5-7.2-23.5-26.3V60c0-16.3,4-26.3,25.7-26.3
		h48c21.6,0,25.7,10,25.7,26.3V74.1z"/>
	<polygon class="st0" points="727.9,1.4 672.2,1.4 620.4,49.7 601.2,49.7 601.2,1.4 560.2,1.4 560.2,132.7 601.2,132.7 601.2,82.3 
		619.3,82.3 678.4,132.7 736.4,132.7 655.5,65.6 	"/>
	<polygon class="st0" points="792.8,80.1 892.5,80.1 892.5,52.9 792.8,52.9 792.8,31.9 898,31.9 898,1.4 751.8,1.4 751.8,132.7 
		900.4,132.7 900.4,101.2 792.8,101.2 	"/>
	<path class="st0" d="M1500.1,0h-65.7c-36.9,0-58.9,9.1-58.9,47.5v39.2c0,38.4,22,47.5,58.9,47.5h65.7c36.9,0,58.9-9.1,58.9-47.5
		V47.5C1559,9.1,1537,0,1500.1,0z M1516.9,74.1c0,19.1-4.1,26.3-23.5,26.3H1441c-19.4,0-23.5-7.2-23.5-26.3V60
		c0-16.3,4.1-26.3,25.7-26.3h48c21.6,0,25.7,10,25.7,26.3V74.1z"/>
	<path class="st0" d="M408.9,74.1V61.5c0-16.3,4.1-26.3,25.7-26.3h96.3V1.4H425.8c-36.9,0-58.9,9.1-58.9,47.5v36.3
		c0,38.4,22,47.5,58.9,47.5h106.6V99h-100C413,99,408.9,93.2,408.9,74.1z"/>
	<path class="st0" d="M1225.6,74.1V61.5c0-16.3,4.1-26.3,25.7-26.3h96.3V1.4h-105.2c-37,0-58.9,9.1-58.9,47.5v36.3
		c0,38.4,22,47.5,58.9,47.5h106.6V99h-100C1229.7,99,1225.6,93.2,1225.6,74.1z"/>
	<path class="st0" d="M1122.5,72.5h-33.2v12.1l-71.2-36c-3-1.5-4-2.8-4-5.4c0-4.8,3.8-5.8,14.3-5.8h60.9V10.1h-65
		c-41.7,0-48.2,4.9-48.2,30.1c0,15.6,0.7,19.9,13.7,27.9c-22.9,0.5-28.6,8.2-29,28.8c0,29.5,19.6,37.2,49.7,37.2h55.2
		c17.3,0,36.4-1.1,42.8-9.5l18.5,9.5l12.8-23.8l-17.3-8.8V72.5z M1015.8,105.8c-11.9,0-17.7-2.7-17.7-14.9c0-6.5,3.5-12.2,8.7-12.2
		c1.7,0,0.1,0,3.8,0l60.2,27.1H1015.8z"/>
</g>
</svg>
