<svg id="Ebene_1" data-name="Ebene 1" xmlns="http://www.w3.org/2000/svg" xmlns:xlink="http://www.w3.org/1999/xlink" viewBox="0 0 100 100"><defs><style>.cls-1{fill:none;}.cls-2{font-size:12px;font-family:MyriadPro-Regular, Myriad Pro;}.cls-3{letter-spacing:0.01em;}.cls-4{letter-spacing:0em;}.cls-5{letter-spacing:-0.01em;}.cls-6{letter-spacing:-0.01em;}.cls-7{letter-spacing:-0.01em;}.cls-8{clip-path:url(#clip-path);}.cls-9{fill:#81d0f5;}</style><clipPath id="clip-path"><rect class="cls-1" x="12.81" y="15.67" width="74.38" height="68.66"/></clipPath></defs><text class="cls-2" transform="translate(39.29 -24.92)">5 <tspan class="cls-3" x="8.7" y="0">S</tspan><tspan x="14.69" y="0">ch</tspan><tspan class="cls-4" x="26.72" y="0">r</tspan><tspan x="30.7" y="0">it</tspan><tspan class="cls-5" x="37.48" y="0">t</tspan><tspan x="41.38" y="0">e + </tspan><tspan class="cls-6" x="59.63" y="0">L</tspan><tspan x="65.12" y="0">etz</tspan><tspan class="cls-7" x="80.24" y="0">t</tspan><tspan x="84.14" y="0">er </tspan><tspan class="cls-3" x="96.62" y="0">S</tspan><tspan x="102.61" y="0">ch</tspan><tspan class="cls-4" x="114.65" y="0">r</tspan><tspan x="118.62" y="0">itt</tspan></text><g class="cls-8"><path class="cls-9" d="M87.19,31.4v5.73a12.67,12.67,0,0,1-1.85,6.39,21.51,21.51,0,0,1-5,5.81,27.8,27.8,0,0,1-7.74,4.36,30.5,30.5,0,0,1-9.63,2,24.31,24.31,0,0,1-4.24,4.24,8.37,8.37,0,0,0-2.35,3.24,11.37,11.37,0,0,0-.65,4,6.18,6.18,0,0,0,1.37,4.07,5.3,5.3,0,0,0,4.35,1.66,9.48,9.48,0,0,1,6,2A6.21,6.21,0,0,1,70,80v2.85a1.37,1.37,0,0,1-.4,1,1.35,1.35,0,0,1-1,.4H31.41a1.37,1.37,0,0,1-1-.4,1.42,1.42,0,0,1-.41-1V80a6.25,6.25,0,0,1,2.62-5.12,9.48,9.48,0,0,1,6-2,5.33,5.33,0,0,0,4.36-1.66,6.18,6.18,0,0,0,1.36-4.07,11.37,11.37,0,0,0-.65-4,8.47,8.47,0,0,0-2.35-3.24A24,24,0,0,1,37,55.68a30.5,30.5,0,0,1-9.63-2,27.8,27.8,0,0,1-7.74-4.36,21.29,21.29,0,0,1-5-5.81,12.69,12.69,0,0,1-1.86-6.39V31.4a4.27,4.27,0,0,1,4.29-4.29H30V22.82a7.19,7.19,0,0,1,7.16-7.15H62.88A7.17,7.17,0,0,1,70,22.82v4.29H82.9a4.27,4.27,0,0,1,4.29,4.29m-53.91,18A39.61,39.61,0,0,1,30,32.84H18.53v4.29c0,2.32,1.41,4.74,4.23,7.24a22.19,22.19,0,0,0,10.52,5.05M81.47,37.13V32.84H70a39.61,39.61,0,0,1-3.3,16.58,22.27,22.27,0,0,0,10.53-5.05c2.82-2.5,4.22-4.92,4.22-7.24"/></g></svg>