<svg id="Ebene_1" data-name="Ebene 1" xmlns="http://www.w3.org/2000/svg" viewBox="0 0 100 100"><defs><style>.cls-1{fill:#83d0f0;}.cls-2{fill:#fff;}</style></defs><path class="cls-1" d="M35,25.53c0-2.05-.07-3.73,0-5.41.14-2.69,1.72-4.28,4.12-4.29s3.91,1.68,4,4.38c.08,1.67,0,3.34,0,5.32h13.7c0-1.87,0-3.6,0-5.33.07-2.51,1.61-4.26,3.78-4.38,2.38-.14,4,1.37,4.35,4,.1.91,0,1.84.05,2.75s0,1.8,0,2.93h16.5c7.09,0,7.61.52,7.61,7.52V78.29c0,4.62-1.27,5.9-5.82,5.9H16.94c-4.91,0-6.09-1.19-6.09-6.08q0-23.43,0-46.85c0-4.48,1.24-5.72,5.72-5.73Zm8.31,8.36c-.36,4.57-1.45,6.21-4.06,6.31s-3.81-1.47-4.47-6.31H19.21V75.81H80.83V33.91H65.19c-.46,4.58-1.52,6.19-4.06,6.29-2.71.09-3.83-1.45-4.5-6.31Z"/><path class="cls-2" d="M43.28,33.89H56.63c.67,4.86,1.79,6.4,4.5,6.31,2.54-.1,3.6-1.71,4.06-6.29H80.83v41.9H19.21V33.89H34.75c.66,4.84,1.79,6.41,4.47,6.31S42.92,38.46,43.28,33.89ZM53.92,54.8V46.89H46V54.8Zm17.84.05v-8H63.91v8ZM46,59.79v7.86h7.93V59.79Zm-17.83-5h7.91V46.89H28.18Zm8,4.83c-2.46,0-4.67,0-6.87,0-.42,0-1.15.63-1.16,1-.11,2.33-.06,4.68-.06,7h8.09Zm35.73,8.1c0-2.4,0-4.75,0-7.09a1.37,1.37,0,0,0-1-.95c-2.34-.09-4.68-.05-7-.05v8.09Z"/><path class="cls-1" d="M53.92,54.8H46V46.89h7.88Z"/><path class="cls-1" d="M71.76,54.85H63.91v-8h7.85Z"/><path class="cls-1" d="M46,59.79h7.93v7.86H46Z"/><path class="cls-1" d="M28.18,54.81V46.89h7.91v7.92Z"/><path class="cls-1" d="M36.18,59.64v8H28.09c0-2.31-.05-4.66.06-7,0-.36.74-1,1.16-1C31.51,59.59,33.72,59.64,36.18,59.64Z"/><path class="cls-1" d="M71.91,67.74h-8V59.65c2.32,0,4.66,0,7,.05a1.37,1.37,0,0,1,1,.95C72,63,71.91,65.34,71.91,67.74Z"/></svg>