<svg id="Ebene_1" data-name="Ebene 1" xmlns="http://www.w3.org/2000/svg" viewBox="0 0 100 100"><defs><style>.cls-1{font-size:12px;font-family:MyriadPro-Regular, Myriad Pro;}.cls-2{letter-spacing:0.01em;}.cls-3{letter-spacing:0em;}.cls-4{letter-spacing:-0.01em;}.cls-5{letter-spacing:-0.01em;}.cls-6{letter-spacing:-0.01em;}.cls-7{fill:#83d0f0;}.cls-8{fill:#fefefe;}</style></defs><text class="cls-1" transform="translate(-73.68 -24.92)">5 <tspan class="cls-2" x="8.7" y="0">S</tspan><tspan x="14.69" y="0">ch</tspan><tspan class="cls-3" x="26.72" y="0">r</tspan><tspan x="30.7" y="0">it</tspan><tspan class="cls-4" x="37.48" y="0">t</tspan><tspan x="41.38" y="0">e + </tspan><tspan class="cls-5" x="59.63" y="0">L</tspan><tspan x="65.12" y="0">etz</tspan><tspan class="cls-6" x="80.24" y="0">t</tspan><tspan x="84.14" y="0">er </tspan><tspan class="cls-2" x="96.62" y="0">S</tspan><tspan x="102.61" y="0">ch</tspan><tspan class="cls-3" x="114.65" y="0">r</tspan><tspan x="118.62" y="0">itt</tspan></text><path class="cls-7" d="M50.08,12.81A37.19,37.19,0,1,1,12.81,49.87,37.29,37.29,0,0,1,50.08,12.81Z"/><path class="cls-8" d="M48.32,72.26A4.09,4.09,0,0,1,45.42,71C40,66.51,34.54,62,29.05,57.52c-1.24-1-1.36-1.74-.19-2.85a16.5,16.5,0,0,0,2.44-3c.81-1.25,1.46-1.17,2.53-.27,3.84,3.28,7.8,6.42,11.64,9.7,1.16,1,1.58.94,2.18-.51,4.51-10.82,9.14-21.58,13.61-32.41.7-1.7,1.34-2,2.9-1.13s3.92.89,4.52,2.31-1,3.2-1.65,4.79C62.2,45.75,57.31,57.28,52.47,68.82,51.67,70.72,50.75,72.39,48.32,72.26Z"/></svg>