<svg id="Ebene_1" data-name="Ebene 1" xmlns="http://www.w3.org/2000/svg" viewBox="0 0 100 100"><defs><style>.cls-1{fill:#83d0f0;}.cls-2{fill:#fff;}</style></defs><path class="cls-1" d="M91.89,34.69a4.61,4.61,0,0,0-3-2.27l-11.79-4q-12.61-4.3-25.22-8.63a5.55,5.55,0,0,0-3.79,0Q34.78,24.34,21.44,28.9L11,32.47C8.36,33.38,7.85,35,7.9,36.2a4,4,0,0,0,3,3.79c1.21.46,2.43.93,3.64,1.41,1.66.65,3.37,1.32,5.08,1.94.52.19.52.23.52.71,0,2.59,0,5.18,0,7.76s0,9.88,0,12.31a4.28,4.28,0,0,0,2.52,4.17q4.83,2.47,9.64,5C35.81,75.12,39.38,77,43,78.79A15.43,15.43,0,0,0,50,80.58a15.68,15.68,0,0,0,7.15-1.82q5.07-2.6,10.13-5.23c3.37-1.74,6.75-3.49,10.13-5.22A4.33,4.33,0,0,0,80,64c-.06-5.19,0-15.36,0-20.18a.91.91,0,0,1,.09-.33c1.15-.52,2.36-1,3.63-1.51l.1,0V52.49c0,1.4,0,2.84.11,4.27a3.43,3.43,0,0,0,1.23,2.41A3.77,3.77,0,0,0,88,60c2-.23,3.2-1.68,3.21-4,0-3,0-5.91,0-8.87,0-2.57,0-5.13,0-7.7a2.73,2.73,0,0,1,.08-.87A4.8,4.8,0,0,0,91.89,34.69Z"/><path class="cls-2" d="M27.55,46.4l4.82,1.87q7.66,3,15.31,6a6,6,0,0,0,4.69,0q7.56-3,15.14-5.93l4.81-1.88.19-.07v1.2c0,3.36,0,11.63,0,14.81,0,0-.07.12-.06.12-6.92,3.56-13.24,6.77-19.3,9.83a6.81,6.81,0,0,1-6.52-.15q-9.44-4.78-18.85-9.62a.74.74,0,0,1-.17-.18c0-3.21,0-11.42,0-14.72Z"/><path class="cls-2" d="M67.26,40.53c-5.54,2.15-11.08,4.3-16.62,6.41a1.72,1.72,0,0,1-1,.06Q36.69,42.05,23.81,37l-1.39-.54,18.25-6.25q4.32-1.5,8.64-3a2,2,0,0,1,1-.11c8.24,2.79,16.47,5.6,24.9,8.49l2.41.82-.35.14L70,39.46Z"/></svg>