<svg id="Ebene_1" data-name="Ebene 1" xmlns="http://www.w3.org/2000/svg" viewBox="0 0 100 100"><defs><style>.cls-1{fill:#81d0f5;}.cls-2{fill:#fff;}</style></defs><path class="cls-1" d="M32.75,76.82c-1,3.08-2.93,4.49-6.26,4.5-4.81,0-9.63,0-14.44,0-.36,0-.71,0-1.14-.07V38.09c.5,0,.94-.06,1.39-.06H32.05a2.15,2.15,0,0,0,1.18-.15,74.37,74.37,0,0,0,6.86-5.33c2.5-2.38,3.13-5.63,3.25-9a28.43,28.43,0,0,1,.56-6.21A9,9,0,0,1,54,11a9.05,9.05,0,0,1,7.84,8.91c-.07,3.8-.56,7.6-.88,11.39,0,.45-.11.89-.2,1.5h1.59c6.09,0,12.17,0,18.26,0a8.4,8.4,0,0,1,8.35,6.49,8,8,0,0,1-2,7.81,1.73,1.73,0,0,0-.46,2.13,8.33,8.33,0,0,1-3.36,10l-.68.47A8.81,8.81,0,0,1,79,69.83a1.37,1.37,0,0,0-.2,1.18c1.52,5.83-2.73,10.92-8.66,10.91-8.22,0-16.44,0-24.66,0-3.73,0-7.36-.54-10.41-3C34.29,78.29,33.56,77.55,32.75,76.82ZM57.1,75.64v.21c4.27,0,8.54,0,12.81,0,1.8,0,2.85-.6,3.11-1.86a2.75,2.75,0,0,0-1.6-3.13A2.77,2.77,0,0,1,70,67.52a3,3,0,0,1,2.87-2.29c.63,0,1.27,0,1.89-.13a2.05,2.05,0,0,0,2-1.91,6.48,6.48,0,0,0-1.08-2.6c-.12-.24-.54-.32-.8-.5a3,3,0,0,1-1.23-3.35,2.9,2.9,0,0,1,2.7-2.14,26.61,26.61,0,0,0,2.7-.18A2.35,2.35,0,0,0,80.67,51a4.67,4.67,0,0,0-1.59-1.39,3.24,3.24,0,0,1-1.65-3.32,3,3,0,0,1,2.65-2.35c.36-.07.72-.11,1.08-.19a2.34,2.34,0,0,0,2-2.47,2.42,2.42,0,0,0-2-2.38,8.87,8.87,0,0,0-1.63-.09H57.61c-2.8,0-3.9-1.57-3.48-4.34q1-6.85,1.69-13.76a3.19,3.19,0,0,0-3.16-3.78c-1.95,0-3.23,1.4-3.28,3.71,0,1.31,0,2.63-.06,3.95-.19,4.45-1.4,8.58-4.6,11.77a75.35,75.35,0,0,1-7.2,6,2.08,2.08,0,0,0-1,1.88c.05,4.63,0,9.27,0,13.9,0,3.91,0,7.82.24,11.71.2,3.49,2.36,5.68,5.85,5.81C47.47,75.78,52.29,75.64,57.1,75.64ZM24.93,77.38a4.07,4.07,0,0,0,4.16-3.82,4.09,4.09,0,1,0-4.16,3.82Z"/><path class="cls-2" d="M57.1,75.64c-4.81,0-9.63.14-14.44,0-3.49-.13-5.65-2.32-5.85-5.81-.23-3.89-.21-7.8-.24-11.71,0-4.63,0-9.27,0-13.9a2.08,2.08,0,0,1,1-1.88,75.35,75.35,0,0,0,7.2-6c3.2-3.19,4.41-7.32,4.6-11.77.06-1.32,0-2.64.06-3.95,0-2.31,1.33-3.74,3.28-3.71a3.19,3.19,0,0,1,3.16,3.78q-.68,6.9-1.69,13.76c-.42,2.77.68,4.33,3.48,4.34H79.55a8.87,8.87,0,0,1,1.63.09,2.42,2.42,0,0,1,2,2.38,2.34,2.34,0,0,1-2,2.47c-.36.08-.72.12-1.08.19a3,3,0,0,0-2.65,2.35,3.24,3.24,0,0,0,1.65,3.32A4.67,4.67,0,0,1,80.67,51,2.35,2.35,0,0,1,79,54.42a26.61,26.61,0,0,1-2.7.18,2.9,2.9,0,0,0-2.7,2.14,3,3,0,0,0,1.23,3.35c.26.18.68.26.8.5a6.48,6.48,0,0,1,1.08,2.6,2.05,2.05,0,0,1-2,1.91c-.62.09-1.26.08-1.89.13A3,3,0,0,0,70,67.52a2.77,2.77,0,0,0,1.46,3.34A2.75,2.75,0,0,1,73,74c-.26,1.26-1.31,1.85-3.11,1.86-4.27,0-8.54,0-12.81,0Z"/><path class="cls-2" d="M24.93,77.38a4.07,4.07,0,1,1,4.16-3.82A4,4,0,0,1,24.93,77.38Z"/></svg>