<svg id="Ebene_1" data-name="Ebene 1" xmlns="http://www.w3.org/2000/svg" viewBox="0 0 100 100"><defs><style>.cls-1{fill:#83d0f0;}.cls-2{fill:#fefefe;}.cls-3{fill:#84d0f0;}</style></defs><path class="cls-1" d="M49.94,15.33A34.67,34.67,0,1,1,15.33,50,34.76,34.76,0,0,1,49.94,15.33Z"/><path class="cls-2" d="M76.17,50.17c-.19,14.39-12.08,26.26-26.29,26-15.09-.31-26.16-11.9-26-26.41.2-15.08,11.94-25.87,26.31-25.85A26.17,26.17,0,0,1,76.17,50.17Z"/><path class="cls-3" d="M50,65.27a18,18,0,0,1-11.9-4.69c-.94-.87-1.52-1.85-.52-3s2.08-.71,3,.2c4.84,4.88,14,4.91,18.88,0,.92-.93,2-1.23,3-.1s.4,2-.48,2.82A18,18,0,0,1,50,65.27Z"/><path class="cls-3" d="M39.77,46.14a7.46,7.46,0,0,1-6.13-3,1.67,1.67,0,0,1,0-2.51,1.77,1.77,0,0,1,2.53-.08c3.26,2.5,3.43,2.5,6.59,0a1.78,1.78,0,0,1,2.54.06A1.64,1.64,0,0,1,45.5,43,7.18,7.18,0,0,1,39.77,46.14Z"/><path class="cls-3" d="M60.39,46.14a7.25,7.25,0,0,1-5.78-3,1.66,1.66,0,0,1,.08-2.5,1.8,1.8,0,0,1,2.68.1c2.55,2.31,3.55,2.3,6.29,0a1.8,1.8,0,0,1,2.69,0,1.68,1.68,0,0,1,0,2.51A7.35,7.35,0,0,1,60.39,46.14Z"/></svg>