<svg id="Ebene_1" data-name="Ebene 1" xmlns="http://www.w3.org/2000/svg" viewBox="0 0 100 100"><defs><style>.cls-1{fill:#81d0f5;}.cls-2{fill:#fff;}</style></defs><path class="cls-1" d="M66.84,87.18A6.83,6.83,0,0,1,64,85.1q-7.23-7.26-14.49-14.5a8.74,8.74,0,0,1-.53-.71c-.26.36-.43.56-.58.78-2.7,3.81-5.4,7.63-8.13,11.42a8.4,8.4,0,0,1-1.58,1.68,1.48,1.48,0,0,1-2.51-.71,21,21,0,0,1-.67-3.55q-1.14-8.9-2.23-17.8a1,1,0,0,0-.8-.92q-8.66-2.57-17.31-5.18c-2.13-.64-3-2.73-1.73-4.42a4.34,4.34,0,0,1,1.46-1.14Q41.48,35.61,68.1,21.2q7.34-4,14.68-7.95a2.81,2.81,0,0,1,3.93.93,8.81,8.81,0,0,1,.48,1v.29c-.09.42-.16.84-.27,1.26Q80.27,43.4,73.62,70.05,71.82,77.27,70,84.48a3.11,3.11,0,0,1-1.85,2.42c-.33.12-.69.19-1,.28Z"/><path class="cls-2" d="M22.92,52.06c.38.12.56.19.75.24,3.91,1.18,7.83,2.34,11.74,3.54A1.59,1.59,0,0,0,37,55.59L71.81,30.7l.63-.42a.6.6,0,0,1,.08.08l-23,32L65.7,78.53Q72.83,50,80.05,21.11l-57.13,31"/></svg>