<svg id="Ebene_1" data-name="Ebene 1" xmlns="http://www.w3.org/2000/svg" viewBox="0 0 100 100"><defs><style>.cls-1{fill:#81d0f5;}</style></defs><rect class="cls-1" x="26.85" y="39.81" width="6.1" height="2.59"/><path class="cls-1" d="M79.55,30a4.58,4.58,0,0,1,3.19,1.38c2.11,2,2,4.65-.35,7.07-3.08,3.15-6.24,6.24-9.48,9.48-3.45-3.42-6.85-6.61-10-10a4.46,4.46,0,0,1,.29-6.66A4.61,4.61,0,0,1,66.28,30a5.2,5.2,0,0,1,3.59,1.59c1,.93,1.82,2,3,3.28,1-1.14,1.8-2.13,2.69-3a5.72,5.72,0,0,1,4-1.86m0-4h0a9.57,9.57,0,0,0-6.68,2.93l-.22-.21A9.21,9.21,0,0,0,66.28,26a9,9,0,0,0-8.76,8.39A8.61,8.61,0,0,0,60,40.61c2.29,2.44,4.72,4.82,7.08,7.11,1,1,2,2,3.06,3l2.82,2.79,2.82-2.8,2.91-2.9c2.28-2.26,4.43-4.39,6.6-6.61a9.33,9.33,0,0,0,3-6.77,8.41,8.41,0,0,0-2.74-6,8.51,8.51,0,0,0-6-2.49Z"/><path class="cls-1" d="M48.14,35.08V27.66H37.6C36,23,33.78,20.94,30.34,20.84c-4.66-.14-7.11,2.52-8.25,6.91H11.69V52.9a2.94,2.94,0,0,0,.62.17c10,0,20,.1,30,0,3.5,0,5.78-2.56,5.82-6.09C48.17,43,48.14,39.05,48.14,35.08ZM29.32,24.54c2-.3,3.31.63,4.24,3H26.15A3.5,3.5,0,0,1,29.32,24.54ZM15.53,31.45H44.22v5H15.53ZM44.26,47.34c-.08,1.68-1.33,2-2.74,2h-26V40.54H26.81l.32,1.64c1.16,0,2.3,0,3.44,0s2.5.37,2.24-1.59H44.28C44.28,42.9,44.35,45.12,44.26,47.34Z"/><path class="cls-1" d="M88.08,58.4H11.64c-2.39,0-2.34,3.71,0,3.71H47.69C45.6,68,43.61,73.57,41.61,79.17H57.9L51.76,62.06H88.08A1.84,1.84,0,1,0,88.08,58.4ZM52.59,75.21H47.12l2.74-7.65Z"/></svg>