<svg id="Ebene_1" data-name="Ebene 1" xmlns="http://www.w3.org/2000/svg" viewBox="0 0 100 100"><defs><style>.cls-1{fill:#fff;}.cls-2{fill:#81d0f5;}</style></defs><path class="cls-1" d="M59.5,65a3.91,3.91,0,0,0,3.79.7,42.49,42.49,0,0,1,11.37-1.73,14.37,14.37,0,0,1,7.47,1.6,3.53,3.53,0,0,0,4-.09c1.28-.86,1.38-2.15,1.2-3.5s-.47-2.94-.67-4.41A3.27,3.27,0,0,1,88,54a3.42,3.42,0,0,0,1.12-2.35c.26-3.55-1.34-6.54-3.26-9.34C81.5,36,75.6,31.24,69.24,27.05c-2-1.3-4-2.54-5.69-3.64a35.68,35.68,0,0,0,.05-4c0-.38-.65-.82-1.09-1-1.82-.8-2.95-.21-4.42,2.16-3.1-.82-6.15-1.76-9.26-2.4-7.48-1.54-15-2.37-22.67-1.25a16.57,16.57,0,0,0-8.3,3.33,3.24,3.24,0,0,0-1.25,3.34A3.24,3.24,0,0,1,16,26c-1.23,1.42-2.69,2.62-4,3.93-1.89,1.82-1.2,3.89,1.17,5a18.39,18.39,0,0,1,5.09,3.78,31.54,31.54,0,0,1,7,10.51,3.13,3.13,0,0,0,2.44,1.74c4.34,1.16,8.67,2.38,13,3.6.41.11.8.32,1.31.52-.22.51-.39.94-.58,1.36L31,78.74a11,11,0,0,0-.56,1.33,2.76,2.76,0,0,0,1.47,3.29,2.92,2.92,0,0,0,3.49-1A12.26,12.26,0,0,0,36.1,81q5.24-11.16,10.45-22.33c.2-.43.42-.85.65-1.31A65.86,65.86,0,0,1,59.5,65Z"/><path class="cls-2" d="M46.55,58.62Q41.33,69.78,36.1,81a12.26,12.26,0,0,1-.71,1.4,2.92,2.92,0,0,1-3.49,1,2.76,2.76,0,0,1-1.47-3.29A11,11,0,0,1,31,78.74L41.41,56.39c.19-.42.36-.85.58-1.36-.51-.2-.9-.41-1.31-.52-4.33-1.22-8.66-2.44-13-3.6a3.13,3.13,0,0,1-2.44-1.74,31.54,31.54,0,0,0-7-10.51,18.39,18.39,0,0,0-5.09-3.78c-2.37-1.1-3.06-3.17-1.17-5,1.35-1.31,2.81-2.51,4-3.93a3.24,3.24,0,0,0,.63-2.36,3.24,3.24,0,0,1,1.25-3.34,16.57,16.57,0,0,1,8.3-3.33c7.63-1.12,15.19-.29,22.67,1.25,3.11.64,6.16,1.58,9.26,2.4,1.47-2.37,2.6-3,4.42-2.16.44.2,1.06.64,1.09,1a35.68,35.68,0,0,1-.05,4c1.72,1.1,3.72,2.34,5.69,3.64C75.6,31.24,81.5,36,85.86,42.31c1.92,2.8,3.52,5.79,3.26,9.34A3.42,3.42,0,0,1,88,54a3.27,3.27,0,0,0-1.37,3.53c.2,1.47.48,2.93.67,4.41s.08,2.64-1.2,3.5a3.53,3.53,0,0,1-4,.09,14.37,14.37,0,0,0-7.47-1.6,42.49,42.49,0,0,0-11.37,1.73A3.91,3.91,0,0,1,59.5,65a65.86,65.86,0,0,0-12.3-7.65C47,57.77,46.75,58.19,46.55,58.62Zm11-29.51C51,30.37,40.34,38,33.31,46.59A79.45,79.45,0,0,1,59.82,58.38C61,48.3,60.59,38.6,57.58,29.11ZM47.9,26.89a48.08,48.08,0,0,0-27.58,5.57L29,42.94C34.59,36.9,40.35,30.86,47.9,26.89Zm17.15,8.69a84.57,84.57,0,0,1,.31,23.79c4.6-.86,9-1.68,13.71-.82C75,50.26,71,42.37,65.05,35.58ZM82.76,48.26c-1.69-2.58-3.55-5-5.41-7.5-.85-1.14-1.84-2.17-2.77-3.25l-.33.34,7.94,13.9C83.74,50.83,83.53,49.43,82.76,48.26Zm-49-26.32a35.25,35.25,0,0,0-10.39,1.81c-.93.35-.92.37-.79,1.45Z"/><path class="cls-1" d="M59.82,58.38C61,48.3,60.59,38.6,57.58,29.11,51,30.37,40.34,38,33.31,46.59A79.45,79.45,0,0,1,59.82,58.38Z"/><path class="cls-1" d="M29,42.94c5.6-6,11.36-12.08,18.91-16a48.08,48.08,0,0,0-27.58,5.57Z"/><path class="cls-1" d="M79.07,58.55c-4.08-8.29-8.07-16.18-14-23a84.57,84.57,0,0,1,.31,23.79C70,58.51,74.33,57.69,79.07,58.55Z"/><path class="cls-1" d="M82.19,51.75c1.55-.92,1.34-2.32.57-3.49-1.69-2.58-3.55-5-5.41-7.5-.85-1.14-1.84-2.17-2.77-3.25l-.33.34Z"/><path class="cls-1" d="M22.54,25.2l11.18-3.26a35.25,35.25,0,0,0-10.39,1.81C22.4,24.1,22.41,24.12,22.54,25.2Z"/></svg>